<?xml version="1.0" encoding="UTF-8" standalone="no"?>
<svg
   xmlns:dc="http://purl.org/dc/elements/1.1/"
   xmlns:cc="http://creativecommons.org/ns#"
   xmlns:rdf="http://www.w3.org/1999/02/22-rdf-syntax-ns#"
   xmlns:svg="http://www.w3.org/2000/svg"
   xmlns="http://www.w3.org/2000/svg"
   xmlns:xlink="http://www.w3.org/1999/xlink"
   xmlns:sodipodi="http://sodipodi.sourceforge.net/DTD/sodipodi-0.dtd"
   xmlns:inkscape="http://www.inkscape.org/namespaces/inkscape"
   id="svg2"
   viewBox="0 0 344.52 403.76"
   version="1.1"
   inkscape:version="0.48.4 r9939"
   width="100%"
   height="100%"
   sodipodi:docname="beer1.svg"
   inkscape:export-filename="/home/nono/OpenBeerMap.github.io/assets/img/beer_empty.png"
   inkscape:export-xdpi="8.9161873"
   inkscape:export-ydpi="8.9161873">
  <sodipodi:namedview
     pagecolor="#ffffff"
     bordercolor="#666666"
     borderopacity="1"
     objecttolerance="10"
     gridtolerance="10"
     guidetolerance="10"
     inkscape:pageopacity="0"
     inkscape:pageshadow="2"
     inkscape:window-width="1215"
     inkscape:window-height="776"
     id="namedview27"
     showgrid="false"
     inkscape:zoom="0.58450565"
     inkscape:cx="172.26"
     inkscape:cy="201.88"
     inkscape:window-x="65"
     inkscape:window-y="24"
     inkscape:window-maximized="1"
     inkscape:current-layer="svg2" />
  <defs
     id="defs4">
    <linearGradient
       id="linearGradient4213"
       y2="349.41"
       gradientUnits="userSpaceOnUse"
       x2="122.01"
       y1="121.23"
       x1="121.87">
      <stop
         id="stop4209"
         stop-color="#ef8900"
         offset="0" />
      <stop
         id="stop4211"
         stop-color="#5d2500"
         offset="1" />
    </linearGradient>
    <radialGradient
       id="radialGradient4221"
       gradientUnits="userSpaceOnUse"
       cy="45.06"
       cx="126.23"
       gradientTransform="matrix(1.7551,6.3148e-8,-1.0548e-8,1.7657,-95.321,-16.223)"
       r="117.84">
      <stop
         id="stop4217"
         stop-color="#fff"
         offset="0" />
      <stop
         id="stop4219"
         stop-color="#c5c5c5"
         offset="1" />
    </radialGradient>
    <linearGradient
       id="linearGradient4235"
       y2="117.64"
       gradientUnits="userSpaceOnUse"
       x2="160.42"
       y1="186.8"
       x1="113.13">
      <stop
         id="stop4231"
         stop-color="#ff7f2a"
         offset="0" />
      <stop
         id="stop4233"
         stop-color="#813300"
         stop-opacity="0"
         offset="1" />
    </linearGradient>
    <radialGradient
       inkscape:collect="always"
       xlink:href="#radialGradient4221"
       id="radialGradient3029"
       gradientUnits="userSpaceOnUse"
       gradientTransform="matrix(1.7551,6.3148e-8,-1.0548e-8,1.7657,298.17393,-60.705035)"
       cx="126.23"
       cy="45.06"
       r="117.84" />
  </defs>
  <path
     id="path4180"
     d="m 64.875,69.156 c -19.529,-0.024 -34.948,0.151 -36.5,0.594 -4.138,1.182 -7.687,5.312 -7.687,5.312 0,0 1.786,15.961 2.968,21.282 1.183,5.316 8.279,115.88 7.688,124.16 -0.591,8.28 2.338,106.4 1.156,111.72 -1.108,4.99 -2.21,10.49 -2.344,10.19 -0.033,0.38 -1.765,20.6 -0.594,23.53 1.183,2.95 68.576,14.18 99.908,13 31.33,-1.18 94.58,-8.27 98.12,-13 3.55,-4.73 -3.55,-28.98 -1.18,-31.94 2.36,-2.96 6.49,-4.73 13,-6.5 6.5,-1.77 33.71,-12.99 40.81,-18.31 7.09,-5.32 23.05,-33.11 26.59,-44.35 3.55,-11.23 12.41,-37.26 13,-47.9 0.59,-10.64 0.59,-52.01 -1.78,-60.88 -2.36,-8.86 -12.4,-28.36 -19.5,-31.9 -7.09,-3.55 -58.53,-7.1 -58.53,-7.1 0,0 -3.53,-2.39 -3.53,-5.94 0,-3.54 -69.17,-38.409 -85.13,-40.182 -9.97,-1.109 -53.917,-1.741 -86.465,-1.782 z m 173.94,71.534 c -0.59,0 44.94,1.2 52.03,4.15 7.1,2.96 6.51,21.86 7.1,32.5 0.59,10.64 -0.6,38.42 -0.6,47.28 0,8.87 -17.14,47.91 -22.46,54.41 -5.33,6.5 -12.4,11.81 -17.72,17.72 -5.32,5.91 -23.65,4.74 -28.38,3.56 -4.73,-1.18 -3.56,-11.84 -4.16,-18.34 -0.59,-6.5 4.16,-108.18 4.76,-114.09 0.59,-5.92 1.16,-20.1 9.43,-27.19 z"
     style="fill:#e6e6e6;stroke:#000000;stroke-width:1px"
     inkscape:connector-curvature="0" />
  <path
     id="path4189"
     d="m 41.596085,113.10675 c 0,0 5.3204,-28.160618 11.823,-31.833831 6.5027,-3.67311 41.972,-6.734087 49.065995,-4.89748 7.0938,1.836606 24.828,15.916913 28.966,20.814189 4.1381,4.897482 11.823,36.119072 13.596,44.689562 1.7735,8.57059 4.1381,41.62837 5.3204,44.68955 1.1823,3.06098 8.8673,19.59013 17.143,19.59013 8.2761,0 26.011,-16.52894 29.558,-23.26334 3.5469,-6.73409 4.1381,-14.07979 14.779,-27.54859 10.641,-13.46775 8.2761,-39.18025 12.414,-44.68955 4.1381,-5.50972 1.1823,-9.18283 5.9115,-6.12185 4.7292,3.06097 7.0938,7.95845 10.641,3.67311 3.5469,-4.28535 -15.37,-35.507046 -15.37,-35.507046 L 48.103985,56.785725 l -14.184,11.631671 c 0,0 5.9115,7.34622 6.5027,11.019641 0.59115,3.67311 1.7735,34.282983 1.1823,33.669923 z"
     style="fill:#ececec"
     inkscape:connector-curvature="0" />
  <path
     id="path4182"
     d="m 417.14093,58.967965 c 0,0 2.3646,-17.143 4.7292,-18.917 2.3646,-1.7735 62.071,-7.0938 66.8,-6.5027 4.7292,0.59115 19.508,8.2761 30.74,8.2761 11.232,0 16.552,2.3646 20.69,4.7292 4.1381,2.3646 8.8673,10.05 13.005,11.232 4.1381,1.1823 13.596,7.0938 12.414,11.232 -1.1823,4.1381 -1.7734,21.873 -1.1823,25.42 0.59115,3.5469 2.9558,10.049995 2.9558,10.049995 0,0 0,4.7292 2.9558,5.9115 2.9558,1.1823 8.8673,1.1823 8.8673,-3.5469 0,-4.7292 -2.9558,-5.9115 -4.1381,-11.822995 -1.1823,-5.9115 -2.9558,-9.4584 1.1823,-17.735 4.1381,-8.2761 4.1381,-10.641 8.2761,-13.005 4.1381,-2.3646 4.7292,-6.5027 7.685,-1.1823 2.9558,5.3204 -0.59115,7.685 5.3204,6.5027 5.9115,-1.1823 4.1381,-7.0938 11.232,-5.9115 7.0938,1.1823 5.9115,1.7735 7.685,7.0938 1.7735,5.3204 0,11.232 5.9115,6.5027 5.9115,-4.7292 8.8673,-10.05 11.823,-15.961 2.9558,-5.9115 5.3204,-34.878 -1.1823,-44.928 -6.5027,-10.0500004 -49.066,-33.696 -59.115,-34.287 -10.05,-0.59115 -81.579,-7.685 -89.264,-5.3204 -7.685,2.3646 -30.149,4.1381 -35.469,7.0938 -5.3204,2.9558 -5.3204,9.4583995 -9.4584,10.0499995 -4.1381,0.59115 -10.641,0 -12.414,4.7292001 -1.7735,4.7292 0.59115,1.77350004 -6.5027,6.5027001 -7.09385,4.7291999 -11.232,1.1822999 -11.823,9.4584003 -0.59115,8.2761 4.1381,7.685 -1.1823,10.641 -5.3204,2.9558 -6.5027,2.9558 -4.1381,10.05 2.3646,7.0938 10.05,24.828 10.05,24.828 l 3.5469,-1.1823 z"
     style="fill:url(#radialGradient3029);stroke:#000000;stroke-width:1px"
     inkscape:connector-curvature="0" />
  <path
     id="path4184"
     d="m 26.602,95.175 2.3646,18.326 c 0,0 10.641,162.57 9.4584,173.21 -1.1823,10.641 -4.7292,39.016 -1.1823,43.745 3.5469,4.7292 3.5469,9.4584 5.9115,10.05 2.3646,0.59115 21.281,7.0938 35.469,6.5027 14.188,-0.59115 87.49,0 99.314,-1.7735 11.823,-1.7734 27.193,-4.1381 34.287,-7.0938 7.0938,-2.9558 7.685,-4.7292 10.05,-1.7735 2.3646,2.9558 5.9115,12.414 3.5469,14.188 -2.3646,1.7735 -28.375,13.005 -38.425,11.232 -10.05,-1.7735 -58.524,-4.7292 -73.894,-4.7292 -15.37,0 -34.287,2.9558 -46.701,0 -12.414,-2.9558 -23.646,-2.3646 -26.602,-4.1381 -2.9558,-1.7735 -8.2761,-10.05 -7.685,-12.414 0.59115,-2.3646 2.3646,-11.823 2.3646,-11.823 0,0 -1.1823,-73.894 -1.1823,-77.441 0,-3.5469 -2.9558,-77.441 -2.9558,-77.441 l -5.3204,-71.529 1.1823,-7.0938 z"
     inkscape:connector-curvature="0"
     style="fill:#ffffff;stroke:#000000;stroke-width:1px" />
  <path
     id="path4191"
     d="m 222.27,125.32 c 0,0 0,34.878 0.59115,46.701 0.59115,11.823 -2.3646,78.032 -4.1381,85.717 -1.7735,7.685 -1.1823,11.823 0,18.326 1.1823,6.5027 0,8.2761 0,8.2761 0,0 3.5469,-21.873 4.1381,-27.193 0.59115,-5.3204 3.5469,-80.397 4.1381,-85.126 0.59116,-4.7292 4.7292,-20.69 5.9115,-26.602 1.1823,-5.9115 2.9558,-8.8673 0,-13.005 -2.9558,-4.1381 -1.1823,-2.3646 -4.7292,-4.7292 -3.5469,-2.3646 -5.9115,0 -5.9115,-2.3646 z"
     inkscape:connector-curvature="0"
     style="fill:#803300" />
  <path
     id="path4193"
     d="m -166.97163,284.31678 c 20.30667,-0.70523 47.3815,-9.92731 54.14963,-10.57794 6.76871,-0.65097 40.612215,-3.41767 27.074815,-4.23136 -13.53741,-0.81372 -20.306675,-0.97649 -33.844095,-1.24766 -13.53741,-0.27124 -20.30668,1.03072 -20.30668,1.03072 0,0 -87.99375,9.49326 -74.45633,9.87318 13.5374,0.37973 -27.07483,3.68883 -6.76871,4.12288 20.30668,0.43399 47.38151,1.13919 54.14964,1.03073 z"
     inkscape:connector-curvature="0"
     style="fill:#803300" />
  <path
     id="path4195"
     d="m 44.928,316.86 c 2.9558,7.0938 4.1381,11.823 10.05,12.414 5.9115,0.59115 54.386,3.5469 66.209,3.5469 11.823,0 69.756,0 78.032,-5.9115 8.2761,-5.9115 11.232,-3.5469 14.188,-14.188 2.9558,-10.641 4.7292,-23.646 2.3646,-27.784 -2.3646,-4.1381 5.9115,10.05 5.9115,18.326 0,8.2761 -4.1381,13.596 -9.4584,21.873 -5.3204,8.2761 -13.005,12.414 -24.237,12.414 -11.232,0 -24.237,1.7734 -32.513,0.59115 -8.2761,-1.1823 -14.188,-2.3646 -25.42,0.59115 -11.232,2.95575 -53.204,-0.59115 -64.436,-2.3646 -11.232,-1.77345 -20.099,1.7735 -23.055,-5.9115 -2.9558,-7.685 -2.3646,-17.143 0,-23.055 2.3646,-5.9115 5.9115,-15.37 5.9115,-15.37 l -3.5469,24.828 z"
     inkscape:connector-curvature="0"
     style="fill-opacity:0.43819999" />
  <path
     id="path4197"
     d="m 214.3019,101.86746 c 1.7735,7.685 9.4584,33.696 8.8673,42.563 -0.59115,8.8673 -1.1823,36.651 -2.3646,49.657 -1.1823,13.005 -4.7292,31.922 -2.9558,49.066 1.7735,17.143 4.1381,23.055 1.1823,29.558 -2.9558,6.5027 -7.0938,15.961 -7.0938,15.961 0,0 16.552,-21.873 17.735,-27.193 1.1823,-5.3204 -4.1381,-30.74 -2.9558,-43.745 1.1823,-13.005 2.9558,-42.563 5.3204,-56.751 2.3646,-14.188 3.5469,-26.602 0.59115,-39.607 -2.95575,-13.005 -17.735,-21.281 -18.326,-19.508 z"
     inkscape:connector-curvature="0"
     style="fill:#ffffff;fill-opacity:0.71535998" />
  <path
     id="path4223"
     d="m 236.82,113.44 c 0,-3.5469 2.5886,27.249 1.9975,27.249 -0.0368,-0.92399 45.677,0.8309 52.77,3.7867 7.0938,2.9558 6.5026,22.598 7.0938,33.239 0.59115,10.641 -0.59375,37.86 -0.59375,46.727 0,8.8673 -16.964,47.719 -22.284,54.221 -5.3204,6.5027 -12.953,12.546 -18.273,18.458 -5.3204,5.9115 -24.57,4.9296 -29.299,3.7473 -4.7292,-1.1823 4.4919,27.852 10.995,26.079 6.5027,-1.7734 33.719,-13.177 40.812,-18.497 7.0938,-5.3204 22.492,-32.742 26.039,-43.974 3.5469,-11.232 12.594,-36.896 13.185,-47.537 0.59115,-10.641 0.76816,-52.008 -1.5964,-60.875 -2.3646,-8.8673 -12.776,-28.175 -19.87,-31.721 -7.0938,-3.5469 -57.349,-6.6874 -57.349,-6.6874 0,0 -3.6283,-2.1457 -3.6283,-4.2148 z"
     inkscape:connector-curvature="0"
     style="fill:#ececec" />
  <path
     id="path4225"
     d="m 236.17,113.8 c 0,0 2.069,5.1726 2.5124,7.685 0.44336,2.5124 1.3301,10.789 1.0345,13.449 -0.29557,2.6602 0.59115,5.3204 -0.44336,5.4682 -1.0345,0.14778 -1.1823,-2.2168 -1.1823,-3.9903 0,-1.7735 -0.29557,-9.1629 -0.88672,-11.675 -0.59116,-2.5124 -0.73894,-4.2858 -1.1823,-6.0593 -0.44336,-1.7734 0.59115,-5.1726 0.14779,-4.877 z"
     inkscape:connector-curvature="0"
     style="stroke:#000000;stroke-width:1px" />
  <metadata
     id="metadata25">
    <rdf:RDF>
      <cc:Work>
        <dc:format>image/svg+xml</dc:format>
        <dc:type
           rdf:resource="http://purl.org/dc/dcmitype/StillImage" />
        <cc:license
           rdf:resource="http://creativecommons.org/licenses/publicdomain/" />
        <dc:publisher>
          <cc:Agent
             rdf:about="http://openclipart.org/">
            <dc:title>Openclipart</dc:title>
          </cc:Agent>
        </dc:publisher>
        <dc:title></dc:title>
        <dc:date>2010-07-17T14:58:12</dc:date>
        <dc:description>Beer,Drink,cool,drunk,water,bujung,thirsty</dc:description>
        <dc:source>http://openclipart.org/detail/73591/beer-by-aungkarns</dc:source>
        <dc:creator>
          <cc:Agent>
            <dc:title>aungkarns</dc:title>
          </cc:Agent>
        </dc:creator>
        <dc:subject>
          <rdf:Bag>
            <rdf:li>Beer</rdf:li>
            <rdf:li>Drink</rdf:li>
            <rdf:li>bujung</rdf:li>
            <rdf:li>clip art</rdf:li>
            <rdf:li>clipart</rdf:li>
            <rdf:li>cool</rdf:li>
            <rdf:li>drunk</rdf:li>
            <rdf:li>thirsty</rdf:li>
            <rdf:li>water</rdf:li>
          </rdf:Bag>
        </dc:subject>
      </cc:Work>
      <cc:License
         rdf:about="http://creativecommons.org/licenses/publicdomain/">
        <cc:permits
           rdf:resource="http://creativecommons.org/ns#Reproduction" />
        <cc:permits
           rdf:resource="http://creativecommons.org/ns#Distribution" />
        <cc:permits
           rdf:resource="http://creativecommons.org/ns#DerivativeWorks" />
      </cc:License>
    </rdf:RDF>
  </metadata>
  <path
     id="path4195-3"
     d="m 45.54049,305.93658 c 2.9558,7.0938 4.1381,11.823 10.049999,12.414 5.911501,0.59115 54.386011,3.5469 66.209011,3.5469 11.823,0 69.75599,0 78.032,-5.9115 8.2761,-5.9115 11.232,-3.5469 14.188,-14.188 2.9558,-10.641 4.7292,-23.646 2.3646,-27.784 -2.3646,-4.1381 5.9115,10.05 5.9115,18.326 0,8.2761 -4.1381,13.596 -9.4584,21.873 -5.3204,8.2761 -13.005,12.414 -24.23701,12.414 -11.232,0 -24.237,1.7734 -32.513,0.59115 -8.2761,-1.1823 -14.188,-2.3646 -25.41999,0.59115 -11.232,2.95575 -53.20401,-0.59115 -64.43601,-2.3646 -11.232001,-1.77345 -20.099,1.7735 -23.055,-5.9115 -2.9558,-7.685 -2.3646,-17.143 0,-23.055 2.3646,-5.9115 5.9115,-15.37 5.9115,-15.37 l -3.5469,24.828 z"
     inkscape:connector-curvature="0"
     style="fill-opacity:0.43819998999999998;fill:#808000" />
  <path
     id="path4180-7"
     d="m -632.47874,336.87856 c -19.529,-0.024 -34.948,0.151 -36.5,0.594 -4.138,1.182 -7.687,5.312 -7.687,5.312 0,0 1.786,15.961 2.968,21.282 1.183,5.316 8.279,115.88 7.688,124.16 -0.591,8.28 2.338,106.40001 1.156,111.72001 -1.108,4.99 -2.21,10.49 -2.344,10.19 -0.033,0.38 -1.765,20.6 -0.594,23.53 1.183,2.95 68.576,14.18 99.908,13 31.33,-1.18 94.58001,-8.27 98.12001,-13 3.55,-4.73 -3.55,-28.98 -1.18,-31.94 2.36,-2.96 6.49,-4.73 13,-6.5 6.5,-1.77 33.71,-12.99 40.81,-18.31 7.09,-5.32 23.05,-33.11 26.59,-44.35 3.55,-11.23001 12.41,-37.26001 13,-47.90001 0.59,-10.64 0.59,-52.01 -1.78,-60.87999 -2.36,-8.86 -12.4,-28.36 -19.5,-31.9 -7.09,-3.55 -58.53,-7.1 -58.53,-7.1 0,0 -3.53,-2.39 -3.53,-5.94001 0,-3.54 -69.17001,-38.409 -85.13001,-40.182 -9.97,-1.109 -53.917,-1.741 -86.465,-1.782 z m 173.94001,71.53401 c -0.59,0 44.94,1.2 52.03,4.15 7.1,2.96 6.51,21.85999 7.1,32.49999 0.59,10.64 -0.6,38.42 -0.6,47.28 0,8.87 -17.14,47.91001 -22.46,54.41001 -5.33,6.5 -12.4,11.81 -17.72,17.72 -5.32,5.91 -23.65,4.74 -28.38,3.56 -4.73,-1.18 -3.56,-11.83999 -4.16,-18.33999 -0.59,-6.5 4.16,-108.18001 4.76,-114.09001 0.59,-5.92 1.16,-20.1 9.43,-27.19 z"
     style="fill:#e6e6e6;stroke:#000000;stroke-width:1px"
     inkscape:connector-curvature="0" />
  <path
     id="path4189-5"
     d="m -655.75766,380.82931 c 0,0 5.3204,-28.16061 11.823,-31.83383 6.5027,-3.67311 41.97201,-6.73408 49.066,-4.89748 7.0938,1.83661 24.828,15.91692 28.966,20.81419 4.1381,4.89748 11.823,36.11908 13.596,44.68957 1.7735,8.57059 4.1381,41.62836 5.3204,44.68954 1.1823,3.06098 8.8673,19.59013 17.143,19.59013 8.2761,0 26.01101,-16.52894 29.55801,-23.26334 3.5469,-6.73409 4.1381,-14.07979 14.779,-27.54858 10.641,-13.46775 8.2761,-39.18025 12.414,-44.68956 4.1381,-5.50972 1.1823,-9.18283 5.9115,-6.12185 4.7292,3.06097 7.0938,7.95845 10.641,3.67311 3.5469,-4.28535 -15.37,-35.50704 -15.37,-35.50704 l -177.34001,-15.91588 -14.184,11.63167 c 0,0 5.9115,7.34622 6.5027,11.01964 0.59115,3.67311 1.7735,34.28298 1.1823,33.66992 z"
     style="fill:#ececec"
     inkscape:connector-curvature="0" />
  <path
     id="path4184-6"
     d="m -670.75174,362.89756 2.3646,18.326 c 0,0 10.641,162.57002 9.4584,173.21001 -1.1823,10.64101 -4.7292,39.01601 -1.1823,43.745 3.5469,4.7292 3.5469,9.4584 5.9115,10.05001 2.3646,0.59115 21.281,7.09379 35.469,6.5027 14.188,-0.59116 87.49,0 99.31401,-1.77351 11.823,-1.77339 27.193,-4.1381 34.287,-7.09379 7.0938,-2.95581 7.685,-4.7292 10.05,-1.77351 2.3646,2.95581 5.9115,12.414 3.5469,14.188 -2.3646,1.7735 -28.375,13.005 -38.425,11.23201 -10.05,-1.77351 -58.52401,-4.7292 -73.89401,-4.7292 -15.37,0 -34.287,2.9558 -46.701,0 -12.414,-2.9558 -23.646,-2.3646 -26.602,-4.1381 -2.9558,-1.77351 -8.2761,-10.05001 -7.685,-12.414 0.59115,-2.3646 2.3646,-11.823 2.3646,-11.823 0,0 -1.1823,-73.89401 -1.1823,-77.44101 0,-3.5469 -2.9558,-77.441 -2.9558,-77.441 l -5.3204,-71.52901 1.1823,-7.0938 z"
     inkscape:connector-curvature="0"
     style="fill:#ffffff;stroke:#000000;stroke-width:1px" />
  <path
     id="path4191-5"
     d="m -475.08373,393.04257 c 0,0 0,34.87799 0.59115,46.70099 0.59115,11.823 -2.3646,78.032 -4.1381,85.71701 -1.7735,7.685 -1.1823,11.823 0,18.326 1.1823,6.5027 0,8.2761 0,8.2761 0,0 3.5469,-21.873 4.1381,-27.193 0.59115,-5.32041 3.5469,-80.397 4.1381,-85.126 0.59116,-4.7292 4.7292,-20.69 5.9115,-26.602 1.1823,-5.9115 2.9558,-8.8673 0,-13.005 -2.9558,-4.1381 -1.1823,-2.3646 -4.7292,-4.7292 -3.5469,-2.3646 -5.9115,0 -5.9115,-2.3646 z"
     inkscape:connector-curvature="0"
     style="fill:#803300" />
  <path
     id="path4195-4"
     d="m -652.42574,584.58257 c 2.9558,7.0938 4.1381,11.823 10.05,12.414 5.9115,0.59116 54.386,3.5469 66.209,3.5469 11.823,0 69.75601,0 78.03201,-5.9115 8.2761,-5.9115 11.232,-3.5469 14.188,-14.188 2.9558,-10.641 4.7292,-23.646 2.3646,-27.784 -2.3646,-4.1381 5.9115,10.05001 5.9115,18.32601 0,8.2761 -4.1381,13.596 -9.4584,21.873 -5.3204,8.27609 -13.005,12.41399 -24.237,12.41399 -11.23201,0 -24.23701,1.7734 -32.51301,0.59116 -8.2761,-1.1823 -14.188,-2.3646 -25.42,0.59115 -11.232,2.95575 -53.204,-0.59115 -64.436,-2.3646 -11.232,-1.77345 -20.099,1.7735 -23.055,-5.9115 -2.9558,-7.685 -2.3646,-17.143 0,-23.055 2.3646,-5.9115 5.9115,-15.37 5.9115,-15.37 l -3.5469,24.828 z"
     inkscape:connector-curvature="0"
     style="fill-opacity:0.43819999" />
  <path
     id="path4197-9"
     d="m -483.05183,369.59002 c 1.7735,7.685 9.4584,33.69601 8.8673,42.56301 -0.59115,8.8673 -1.1823,36.65099 -2.3646,49.65699 -1.1823,13.005 -4.7292,31.922 -2.9558,49.066 1.7735,17.14301 4.1381,23.05501 1.1823,29.55801 -2.9558,6.5027 -7.0938,15.961 -7.0938,15.961 0,0 16.552,-21.873 17.735,-27.193 1.1823,-5.3204 -4.1381,-30.74001 -2.9558,-43.74501 1.1823,-13.005 2.9558,-42.56299 5.3204,-56.751 2.3646,-14.18799 3.5469,-26.60199 0.59115,-39.60699 -2.95575,-13.00501 -17.735,-21.28101 -18.326,-19.50801 z"
     inkscape:connector-curvature="0"
     style="fill:#ffffff;fill-opacity:0.71535998" />
  <path
     id="path4223-0"
     d="m -460.53373,381.16256 c 0,-3.5469 2.5886,27.24901 1.9975,27.24901 -0.0368,-0.92399 45.677,0.8309 52.77,3.7867 7.0938,2.9558 6.5026,22.59799 7.0938,33.23899 0.59115,10.641 -0.59375,37.86 -0.59375,46.727 0,8.8673 -16.964,47.71901 -22.284,54.22101 -5.3204,6.5027 -12.953,12.546 -18.273,18.458 -5.3204,5.9115 -24.57,4.9296 -29.299,3.7473 -4.7292,-1.1823 4.4919,27.852 10.995,26.079 6.5027,-1.7734 33.719,-13.177 40.812,-18.497 7.0938,-5.3204 22.492,-32.742 26.039,-43.974 3.5469,-11.23201 12.594,-36.89601 13.185,-47.53701 0.59115,-10.641 0.76816,-52.008 -1.5964,-60.87499 -2.3646,-8.8673 -12.776,-28.175 -19.87,-31.721 -7.0938,-3.5469 -57.349,-6.6874 -57.349,-6.6874 0,0 -3.6283,-2.1457 -3.6283,-4.21481 z"
     inkscape:connector-curvature="0"
     style="fill:#ececec" />
  <path
     id="path4225-6"
     d="m -461.18373,381.52256 c 0,0 2.069,5.17261 2.5124,7.68501 0.44336,2.5124 1.3301,10.789 1.0345,13.449 -0.29557,2.6602 0.59115,5.3204 -0.44336,5.4682 -1.0345,0.14778 -1.1823,-2.2168 -1.1823,-3.9903 0,-1.7735 -0.29557,-9.1629 -0.88672,-11.675 -0.59116,-2.5124 -0.73894,-4.2858 -1.1823,-6.0593 -0.44336,-1.7734 0.59115,-5.17261 0.14779,-4.87701 z"
     inkscape:connector-curvature="0"
     style="stroke:#000000;stroke-width:1px" />
  <path
     id="path4195-3-7"
     d="m -651.81325,573.65915 c 2.9558,7.0938 4.1381,11.823 10.05,12.414 5.9115,0.59115 54.38601,3.5469 66.20901,3.5469 11.823,0 69.756,0 78.03201,-5.9115 8.2761,-5.9115 11.232,-3.5469 14.188,-14.188 2.9558,-10.641 4.7292,-23.646 2.3646,-27.784 -2.3646,-4.1381 5.9115,10.05 5.9115,18.326 0,8.2761 -4.1381,13.59601 -9.4584,21.873 -5.3204,8.2761 -13.005,12.414 -24.23701,12.414 -11.232,0 -24.23701,1.7734 -32.51301,0.59116 -8.2761,-1.1823 -14.188,-2.3646 -25.41999,0.59115 -11.232,2.95575 -53.20401,-0.59115 -64.43601,-2.3646 -11.232,-1.77345 -20.099,1.7735 -23.055,-5.9115 -2.9558,-7.685 -2.3646,-17.143 0,-23.055 2.3646,-5.9115 5.9115,-15.37 5.9115,-15.37 l -3.5469,24.828 z"
     inkscape:connector-curvature="0"
     style="fill:#808000;fill-opacity:0.43819999" />
</svg>
